name processed_emg_signals
nRows=16
nColumns=35
 
endheader
time	FP1_FX	FP1_FY	FP1_FZ	FP1_MX	FP1_MY	FP1_MZ	FP2_FX12	FP2_FX34	FP2_FY14	FP2_FY23	FP2_FZ1	FP2_FZ2	FP2_FZ3	FP2_FZ4	FP3_FX12	FP3_FX34	FP3_FY14	FP3_FY23	FP3_FZ1	FP3_FZ2	FP3_FZ3	FP3_FZ4	LGLTMED	LRF	LADDLONG	LST	LTA	LGM	RGLTMED	RRF	RADDLONG	RST	RTA	RGM
0.22878799999999996	24.71580058336258	-10.608834773302078	-43.42336058616638	91.98519587516785	37.63256371021271	16.63614809513092	-7.68819893572612	7.101314333801156	-13.238868062916254	10.689160749751636	-6.397662718477477	6.556612330807184	-7.033455347029758	7.828197587911745	-1.6804629889185208	1.721956543163543	-6.773041921405138	2.174830225279834	-3.483079462054093	3.326537732354211	5.831224755366293	2.778637498321359	0.023041121661663	-0.0340276211500167	0.028839549049735	0.0233463011682033	-0.0160219743847847	0.0355535186827182	-0.0257877483963966	-0.0199893210083246	-0.0517280846834182	0.0050354748964309	-0.0254825688898563	0.0129701662808656
0.22978799999999996	25.043869018554688	-10.753795504570007	-42.828258872032166	91.16120934486388	36.70939207077026	16.90318137407303	-8.19683333995738	6.7491827129638295	-13.238868062916254	11.277554524099289	-6.715559032753617	7.669248945709796	-8.225566768097224	8.940834202814358	-1.4315054621808088	2.302857438884871	-6.110236577206251	1.7605770115736874	-3.4048080000494	2.778637498321359	5.987767201651877	3.326537732354211	0.012054624967277	-0.0279240123927593	-0.0007629534229636	0.0056458357721567	-0.0047302991151809	0.027924008667469	-0.0199893210083246	-0.0376897864043712	0.009613181464374	-0.0025940360501408	-0.0273136515170335	0.0187685936689376
0.23078799999999997	24.76920783519745	-10.975051671266556	-42.31708347797394	90.2838170528412	36.1066609621048	17.032882571220398	-9.0184728333752	5.92754321954601	-13.63113057914802	11.002970954268676	-7.192403504167828	7.748723266810771	-7.033455347029758	7.987145259985937	-1.7634488311644247	1.721956543163543	-6.9801684650491325	1.6777263435488263	-3.7961653100728654	2.9351804223307454	6.066038902518471	2.9351804223307454	0.0038147531449794	0.0105287227779626	0.0077820988371968	-0.0050354795530438	-0.0022888556122779	0.0016784900799393	-0.0138857122510671	-0.0318913571536541	0.0218203999102115	-0.0035095773637294	-0.0038147578015923	0.0132753467187285
0.23178799999999997	24.204623699188232	-10.669870674610138	-41.82116389274597	89.54375386238098	35.36659777164459	17.048142850399017	-9.25322724726675	5.145029302576347	-13.278093739944552	11.002970954268676	-6.079766404201337	6.95398248112042	-7.351351661305898	7.510301273635605	-2.0538992790250887	1.307027331934023	-6.565915377761144	1.5948756755239657	-2.9351792280212408	3.248266270349518	6.222581826527858	3.091723346340132	0.0260929241776466	0.0004577683284878	-0.0160219743847847	0.012054624967277	-0.0004577729851007	-0.0315861776471138	-0.02029450237751	-0.0205996818840503	0.0175478719174861	-0.0184634178876876	0.0785839632153511	0.0245670229196548
0.23278799999999997	24.074922502040863	-10.4562446475029	-41.371023654937744	89.1165018081665	34.908828139305115	17.109178006649017	-9.722735119847243	4.988526519182415	-13.35654605165928	10.767613061466363	-7.351351661305898	7.27187879539656	-7.589774139544943	7.11293063825849	-1.9294205156562327	1.182548568565167	-6.773041921405138	1.884853013610979	-3.717893848068172	3.5613521183682906	5.987767201651877	3.0134518843354385	0.0312809944152832	-0.0205996818840503	-0.011749449186027	-0.0028992164880037	-0.0245670266449451	0.0151064293459057	-0.0132753513753414	-0.0135805318132042	0.0331120751798152	-0.0035095773637294	-0.0035095773637294	0.0160219706594944
0.23378799999999997	23.388266563415527	-9.708552807569504	-41.149768233299255	88.9333963394165	34.48920547962189	17.254139482975006	-9.370603499009915	5.418909292916055	-13.278093739944552	10.88529200786752	-6.953981510992662	7.1924049593594646	-7.033455347029758	8.305041574262077	-2.0953922001480407	1.514491937548783	-6.648765792949689	1.8434276795985485	-3.4048080000494	2.54382311230728	6.144310603385065	2.856908960326052	0.0086976401507854	-0.0462348386645317	0.0068665575236082	0.0056458357721567	-0.0230411253869533	-0.004425118677318	-0.0230411253869533	-0.0212100427597761	0.0233463011682033	0.007171737961471	0.0306706316769123	0.0154116097837686
0.23478799999999997	23.23567569255829	-9.304188191890717	-40.99717736244202	88.82657885551453	34.18402373790741	17.498283088207245	-9.057597932222052	5.810166012600234	-13.513451632746865	10.924517684895818	-6.953981510992662	7.748723266810771	-7.828196132720109	7.748723266810771	-1.9709134367791847	1.680463622040591	-6.814467128999411	2.0505543496607004	-2.856907766016548	2.9351804223307454	5.987767201651877	2.54382311230728	-0.0218204036355018	-0.0062562013044953	-0.0022888556122779	-0.0074769230559468	-0.0218204036355018	0.0187685936689376	-0.0151064340025186	-0.0279240123927593	-0.0135805318132042	-0.0035095773637294	0.0077820988371968	0.0102235423400998
0.23578799999999997	23.08308482170105	-9.426260739564896	-40.89799225330353	89.10887241363525	33.98565649986267	17.711909115314484	-8.588090059641559	6.279674362782032	-13.00351017011394	10.88529200786752	-6.874507189891688	6.477138009706209	-7.1129291830668535	8.384515410299173	-1.5559842255496648	1.638970700917639	-6.7316162081382345	1.4705996734866744	-2.7003648420071613	3.4048091943589043	5.674681353633105	2.856908960326052	0.0022888509556651	0.0032043922692537	-0.0059510208666324	0.0041199335828423	0.0099183619022369	-0.0148012535646557	-0.0148012535646557	-0.0254825688898563	-0.0248722080141305	-0.006866562180221	-0.0071717426180839	0.0065613770857453
0.23678799999999997	22.93812483549118	-9.464408457279204	-40.95140099525452	89.52849507331848	33.87121260166168	17.917907238006592	-8.509838906745244	6.55355435312174	-13.395772686345708	10.53225516866405	-6.715559032753617	6.715560002881375	-7.907670453821083	8.146093902187886	-1.6389700677955688	1.970914069901255	-6.483064456899967	2.133405017685561	-3.2482650760400134	3.091723346340132	5.439867206480926	2.3872801882978933	0.0053406553342938	-0.0282291918992996	-0.0236514862626791	0.0151064293459057	0.0053406553342938	-0.0407415926456451	-0.0151064340025186	-0.0166323371231555	-0.026092929765582	0.012054624967277	-0.0242618471384048	-0.0013733142986893
0.23778799999999994	22.98390120267868	-9.632257372140884	-41.08110070228577	90.00152349472046	33.84069502353668	18.03997904062271	-8.392461699799469	6.123171579388099	-13.35654605165928	10.84606537318109	-6.397662718477477	7.43082695253463	-7.669247975582039	8.225567738224981	-1.4315054621808088	1.970914069901255	-6.7316162081382345	1.884853013610979	-3.3265365380447065	3.169994808344825	6.30085304967065	3.091723346340132	0.0068665575236082	-0.0404364094138145	-0.0410467721521854	0.0212100371718406	-0.0163271557539701	0.0334172546863555	-0.0184634178876876	-0.0224307645112276	0.007171737961471	0.0025940313935279	-0.0257877483963966	0.0074769183993339
0.23878799999999994	22.93812483549118	-9.929808229207993	-41.302356123924255	90.9628450870514	33.91699194908142	18.520638346672055	-8.82284447353311	6.162297633437561	-13.31732037463098	10.728386426779934	-6.318188882440381	7.669248945709796	-7.748721811619134	7.351352631433656	-1.8879275945332807	1.514491937548783	-6.7316162081382345	1.6777263435488263	-3.2482650760400134	2.700366036316666	6.222581826527858	2.700366036316666	0.0065613770857453	0.0166323315352201	0.0105287227779626	-0.0071717426180839	-0.0190737806260585	-0.0218204036355018	-0.0279240123927593	-0.0233463048934936	-0.0053406599909067	0.000152587890625	-0.0233463048934936	0.0141908880323171
0.23978799999999995	23.296712338924408	-9.906920045614244	-41.485464572906494	91.59609079360962	33.91699194908142	19.298848509788517	-9.25322724726675	6.162297633437561	-12.925057858399214	10.767613061466363	-7.033455347029758	6.715560002881375	-7.987144289858179	8.384515410299173	-1.5559842255496648	2.095392833270111	-6.565915377761144	2.2576811461410102	-3.3265365380447065	4.0309808903964495	6.30085304967065	3.0134518843354385	0.0038147531449794	-0.026092929765582	-0.0001525925472378	0.0111390836536884	-0.0184634178876876	0.0163271501660347	-0.0239566676318645	-0.0248722080141305	-0.025177389383316	-0.0047302991151809	-0.0132753513753414	0.0126649858430027
0.24078799999999995	22.87708818912506	-9.922178834676744	-41.72961115837097	92.48111844062804	33.93225073814392	19.199664890766144	-9.487980705955692	5.692788805654459	-13.552678267433294	11.15987557769813	-7.828196132720109	7.43082695253463	-7.669247975582039	7.907671423948841	-1.8879275945332807	1.804942385409447	-7.145869801098854	2.0505543496607004	-3.874436772077559	3.326537732354211	5.987767201651877	2.856908960326052	-0.0038147578015923	0.0010681292042136	0.01449606847018	-0.0028992164880037	-0.0126649904996156	-0.0065613817423582	-0.0196841396391391	-0.0132753513753414	-0.0099183665588498	-0.0025940360501408	0.0077820988371968	0.0215152185410261
0.24178799999999995	22.693979740142822	-9.456779062747955	-41.68383181095123	92.99229383468628	33.93988013267517	19.93209719657898	-9.84011232679302	5.771040436152077	-13.788035202577476	11.669817040331054	-7.271877825268802	7.1924049593594646	-7.510299818443968	7.669248945709796	-1.8049417522873767	1.970914069901255	-6.773041921405138	2.174830225279834	-3.091722152030627	3.5613521183682906	5.987767201651877	3.169994808344825	0.0086976401507854	0.0117494445294141	-0.0282291918992996	0.0068665575236082	-0.0056458404287695	-0.0090028252452611	-0.0163271557539701	-0.0334172621369361	-0.0108339078724384	-0.0010681338608264	0.0447089299559593	0.0163271501660347
0.24278799999999995	22.92286604642868	-9.616998583078384	-41.64568483829498	93.5034692287445	33.84069502353668	20.740824937820435	-9.761861173896705	6.084046002939942	-13.591903944461592	11.081423265983403	-6.477136554514573	7.27187879539656	-8.861359396649505	7.987145259985937	-1.7634488311644247	1.472999016425831	-6.7316162081382345	1.719151677561257	-3.561350924058786	3.4048091943589043	5.987767201651877	2.9351804223307454	0.0065613770857453	-0.0212100427597761	-0.0355535224080085	0.0132753467187285	-0.0236514862626791	0.0163271501660347	-0.0181582383811473	-0.0187685992568731	0.007171737961471	-0.0172426961362361	0.0108339032158255	0.0032043922692537
0.24378799999999995	22.94575423002243	-9.136339277029036	-41.81353449821472	93.94598603248596	33.68810415267944	21.34355753660202	-9.64448396695093	6.279674362782032	-13.35654605165928	11.434459147528742	-6.874507189891688	7.510301273635605	-7.748721811619134	7.748723266810771	-1.6389700677955688	1.721956543163543	-6.648765792949689	2.0505543496607004	-3.013450690025934	3.091723346340132	6.144310603385065	3.0134518843354385	0.0166323315352201	-0.0111390883103013	-0.0169375166296958	0.0132753467187285	-0.0080872839316725	-0.0028992164880037	-0.02029450237751	-0.0364690646529197	-0.0004577729851007	0.0041199335828423	-0.0065613817423582	0.0102235423400998
